<svg id="Layer_1" data-name="Layer 1" xmlns="http://www.w3.org/2000/svg" xmlns:xlink="http://www.w3.org/1999/xlink" viewBox="0 0 956.39 387.67"><defs><style>.cls-1{font-size:254.15px;fill:#1a1a1a;font-family:LondonBridge-SemiBold, London Bridge;font-weight:600;letter-spacing:-0.06em;}.cls-2{letter-spacing:0em;}.cls-3{fill:url(#linear-gradient);}</style><linearGradient id="linear-gradient" x1="348.44" y1="625.75" x2="98.81" y2="303.01" gradientUnits="userSpaceOnUse"><stop offset="0.03" stop-color="#eb58f7"/><stop offset="0.5" stop-color="#89b4ff"/><stop offset="0.98" stop-color="#4df4ff"/></linearGradient></defs><title>Logo Qwart</title><text class="cls-1" transform="translate(355.08 323.37)">w<tspan class="cls-2" x="232.8" y="0">art</tspan></text><path class="cls-3" d="M314.06,494.41c6.79-14.77,11-32,11.71-51.63-7.54-159.63-231.93-155.86-237.69,0C92.19,529.9,160.89,568.36,223.39,560l-69.83-82.43,32.34-27.49L268,545l29.57,34.19,22.58,26.13H212.38c-80.94,2.7-163.67-51-168.77-162.51,8.24-214.93,316.62-218.65,326.63,0-1.34,34.69-10.48,63.87-24.93,87.5l65.35,75H352.45l-35.21-41.18-29.05-34L205.5,433.41l31.88-27Z" transform="translate(-43.61 -280.19)"/></svg>